<?xml version="1.0" encoding="utf-8"?>
<!-- Generator: Adobe Illustrator 21.0.1, SVG Export Plug-In . SVG Version: 6.00 Build 0)  -->
<svg version="1.1" id="Calque_1" xmlns="http://www.w3.org/2000/svg" xmlns:xlink="http://www.w3.org/1999/xlink" x="0px" y="0px"
	 viewBox="0 0 113.2 113.2" style="enable-background:new 0 0 113.2 113.2;" xml:space="preserve">
<style type="text/css">
	.st0{display:none;fill:#FFFFFF;}
	.st1{fill:#FFFFFF;}
	.st2{display:none;}
	.st3{display:inline;fill:#FFFFFF;}
</style>
<path class="st0" d="M37.6,66.2l54-40.2L14.4,54.5L37.6,66.2z M91.6,26.1L46.7,67.9l-3.8,16l12.9-11.7l0,0l14,6.6L91.6,26.1z"/>
<path class="st1" d="M93.3,35.6c-2.6,1.1-5.4,1.9-8.3,2.3c3-1.9,5.3-4.6,6.3-8c-2.8,1.7-5.8,2.8-9.1,3.6c-2.6-2.8-6.4-4.6-10.5-4.6
	c-8,0-14.4,6.4-14.4,14.4c0,1.1,0.1,2.3,0.4,3.3c-12-0.7-22.5-6.4-29.6-15.1c-1.3,2.1-2,4.6-2,7.3c0,5,2.6,9.4,6.4,12
	c-2.4-0.1-4.6-0.7-6.5-1.9V49c0,7,5,12.8,11.5,14.1c-1.1,0.3-2.4,0.6-3.8,0.6c-1,0-1.9-0.1-2.7-0.3c1.9,5.7,7.1,9.8,13.4,10
	c-4.7,3.8-11,6.3-17.7,6.3c-1.1,0-2.3,0-3.4-0.1c6.4,4.1,14,6.4,22.1,6.4c26.5,0,41-21.9,41-41c0-0.6,0-1.3,0-1.9
	C89,41,91.4,38.5,93.3,35.6z"/>
<g class="st2">
	<path class="st3" d="M62.7,48.1L62.7,48.1C62.7,48,62.5,48.1,62.7,48.1L62.7,48.1z"/>
	<path class="st3" d="M42,82.3H28.7V42.3H42V82.3z M35.3,36.9L35.3,36.9c-4.6,0-7.5-3-7.5-6.9s3-6.9,7.5-6.9c4.6,0,7.3,3,7.5,6.9
		C42.9,33.9,39.9,36.9,35.3,36.9z M89.9,82.3H76.6V61c0-5.3-2-9.1-6.8-9.1c-3.7,0-5.9,2.5-6.8,4.8c-0.4,0.9-0.4,2-0.4,3.2v22.3H49.3
		c0,0,0.2-36.3,0-40.1h13.4V48c1.8-2.7,5-6.6,11.9-6.6c8.7,0,15.3,5.7,15.3,18V82.3L89.9,82.3z"/>
</g>
</svg>
